<?xml version="1.0" encoding="utf-8"?>
<!-- Generator: Adobe Illustrator 27.3.1, SVG Export Plug-In . SVG Version: 6.00 Build 0)  -->
<svg version="1.1" id="Layer_1" xmlns="http://www.w3.org/2000/svg" xmlns:xlink="http://www.w3.org/1999/xlink" x="0px" y="0px"
	 viewBox="0 0 500 500" style="enable-background:new 0 0 500 500;" xml:space="preserve">
<style type="text/css">
	.st0{clip-path:url(#SVGID_00000031906333891170508000000002865831384073624715_);}
	.st1{fill:#E20A0A;}
	.st2{fill:#FFFFFF;}
</style>
<g id="_x35_fbc834f8a">
	<g>
		<path d="M307.2,163.7h51.4c17.1-22.7,36.1-44.4,56.5-65.2V59.6H87.4v42.1h273.5C341.9,121.6,323.8,142.4,307.2,163.7z"/>
		<path d="M215.6,321.5c-17.6,44-31,89.8-39.8,138.8h54.1c8.3-48.6,21.3-94.9,38.9-138.8H215.6z"/>
	</g>
	<g>
		<g>
			<defs>
				<rect id="SVGID_1_" x="330.8" y="354.4" width="101.8" height="101.8"/>
			</defs>
			<clipPath id="SVGID_00000119080336420017670470000003579059965804251321_">
				<use xlink:href="#SVGID_1_"  style="overflow:visible;"/>
			</clipPath>
			<g style="clip-path:url(#SVGID_00000119080336420017670470000003579059965804251321_);">
				<path class="st1" d="M330.8,354.4h101.8v101.8H330.8V354.4z"/>
			</g>
		</g>
	</g>
	<path class="st2" d="M412.2,396h-21.3v-21.3h-19V396h-21.3v19H372v21.3h19V415h21.3V396z"/>
	<g>
		<g transform="translate(150.804479, 184.701221)">
			<path d="M-120.8,84.1c-4.6,0-9.3-0.9-13.4-2.3c-4.2-1.4-7.4-3.7-9.7-6l2.8-5.1c2.3,2.3,5.1,4.2,8.8,5.6c3.7,1.4,7.9,2.3,11.6,2.3
				c5.6,0,9.7-0.9,12.5-3.2c2.8-1.9,4.2-4.6,4.2-7.9c0-2.3-0.9-4.6-2.3-6c-1.4-1.4-3.2-2.8-5.6-3.7s-5.1-1.9-9.3-2.8
				c-4.6-0.9-8.3-2.3-11.1-3.2c-2.8-0.9-5.1-2.8-7.4-5.1c-1.9-2.3-2.8-5.6-2.8-9.3c0-3.2,0.9-6,2.3-8.8c1.9-2.8,4.2-4.6,7.9-6.5
				c3.7-1.4,7.9-2.3,13-2.3c3.7,0,6.9,0.5,10.6,1.4c3.7,0.9,6.5,2.3,8.8,4.2l-2.3,5.1c-2.8-1.9-5.6-3.2-8.3-3.7
				c-2.8-0.9-6-1.4-8.8-1.4c-5.6,0-9.7,0.9-12.5,3.2c-2.8,2.3-4.2,5.1-4.2,8.3c0,2.3,0.9,4.6,2.3,6c1.4,1.4,3.2,2.8,5.6,3.7
				s5.6,1.9,9.3,2.8c4.6,0.9,8.3,2.3,11.1,3.2c2.8,0.9,5.1,2.8,7.4,5.1c1.9,2.3,2.8,5.1,2.8,9.3c0,3.2-0.9,6-2.8,8.8
				c-1.9,2.8-4.2,4.6-7.9,6C-111.1,83.1-115.7,84.1-120.8,84.1z"/>
		</g>
	</g>
	<g>
		<g transform="translate(162.477327, 184.701221)">
			<path d="M-25.2,20.7v62.5h-6.5V54.5H-71v28.7h-6.5V20.7h6.5v27.8h39.3V20.7H-25.2z"/>
		</g>
	</g>
	<g>
		<g transform="translate(177.0242, 184.701221)">
			<path d="M-2.5,20.7H4v62.5h-6.5V20.7z"/>
		</g>
	</g>
	<g>
		<g transform="translate(184.15375, 184.701221)">
			<path d="M86.7,20.7v62.5h-5.6L40.9,32.2v50.9h-6.5V20.7H40l40.3,50.9V20.7H86.7z"/>
		</g>
	</g>
	<g>
		<g transform="translate(198.700624, 184.701221)">
			<path d="M109.4,20.7h6.5v62.5h-6.5V20.7z"/>
		</g>
	</g>
	<g>
		<g transform="translate(205.830173, 184.701221)">
			<path d="M198.7,20.7v62.5h-5.1l-40.3-50.9v50.9h-6.5V20.7h5.1l40.3,50.9V20.7H198.7z"/>
		</g>
	</g>
	<g>
		<g transform="translate(220.377047, 184.701221)">
			<path d="M265.8,52.1h6.5v24.1c-2.8,2.8-6.5,4.6-10.2,6c-4.2,1.4-8.3,1.9-12.5,1.9c-6,0-12-1.4-17.1-4.2c-5.1-2.8-8.8-6.5-12-11.6
				c-2.8-5.1-4.2-10.2-4.2-16.2s1.4-11.6,4.2-16.2c2.8-5.1,6.9-8.8,12-11.6c5.1-2.8,10.6-4.2,17.1-4.2c4.6,0,9.3,0.9,13,2.3
				c4.2,1.4,7.4,3.7,10.2,6.9l-4.2,4.2c-5.1-5.1-11.1-7.4-19-7.4c-5.1,0-9.7,0.9-13.9,3.2c-4.2,2.3-7.4,5.6-9.7,9.3
				c-2.3,4.2-3.7,8.3-3.7,13.4c0,5.1,0.9,9.3,3.7,13.4c2.3,3.7,5.6,6.9,9.7,9.3c4.2,2.3,8.8,3.2,13.9,3.2c6.5,0,12-1.4,16.2-4.6
				C265.8,73.4,265.8,52.1,265.8,52.1z"/>
		</g>
	</g>
</g>
</svg>
